<svg id="eaabf066-9304-4b3f-8d3d-663d4bead01d" data-name="Layer 1" xmlns="http://www.w3.org/2000/svg" width="865.76" height="682.89" viewBox="0 0 865.76 682.89"><path d="M392.54,414.53s2.62-29.38,23.5-39.82L438.89,361l80.1-7s50.33,25.48,74.09,46.27a17,17,0,0,1,5.31,17c-7.47,29.26-30.36,120.43-37.74,167.39a77.86,77.86,0,0,0-.92,12.94l.58,45.39H388.63S388,476.54,392.54,414.53Z" fill="#f20004"/><path d="M438.89,361s-15,39.82,41.13,40.47c0,0,54.39-3.26,51.35-40.25L519,354l-66.39,1.15Z" fill="#a3a3a3" opacity="0.2"/><path d="M461.76,334.94a54.63,54.63,0,0,0-7.2-13.11l38.51-49.61,10.45-.65,2,41.78,7.84,35.9L519,354a6.22,6.22,0,0,1,2.23,5c-.35,8.48-5.21,30.72-46.43,30.72,0,0-35.68-1.7-26.85-27.79a16,16,0,0,1,7.17-8.71h0A15,15,0,0,0,461.76,334.94Z" fill="#f9b499"/><path d="M591.64,517.67s15.67-33.95,56.79-31.34l-30.68-55.48a106,106,0,0,0-39.17-41.78s-22.84-3.92-35.9,62.67c0,0-4.5,23.07,11.06,33.69a134,134,0,0,1,11.73,8.77C572.37,500.1,582.7,509.11,591.64,517.67Z" fill="#f20004"/><path d="M591.64,517.67s15.67-33.95,56.79-31.34l-30.68-55.48a106,106,0,0,0-39.17-41.78s-22.84-3.92-35.9,62.67c0,0-4.5,23.07,11.06,33.69a134,134,0,0,1,11.73,8.77C572.37,500.1,582.7,509.11,591.64,517.67Z" fill="#a3a3a3" opacity="0.2"/><path d="M591.64,517.67l38,46.71a8.26,8.26,0,0,1,.61,9.58c-4.82,7.74-16.15,24-38.59,47.2a28.18,28.18,0,0,1-20.25,8.57h-18.3a113.26,113.26,0,0,0-41.22,7.72c-4.34,1.69-8.85,3.63-13.13,5.77l127.51-.44,63.53-35.68s21.33-13.06,7.4-39.6l-48.74-81.17S611,481.33,591.64,517.67Z" fill="#f9b499"/><path d="M362.34,491.78l16.53-77.66s7.41-24.6,30-34.51c0,0-16.32,17.95-17.32,51l-1.28,65.49S382.17,489.58,362.34,491.78Z" fill="#f20004"/><path d="M362.34,491.78l16.53-77.66s7.41-24.6,30-34.51c0,0-16.32,17.95-17.32,51l-1.28,65.49S382.17,489.58,362.34,491.78Z" fill="#a3a3a3" opacity="0.2"/><path d="M345.27,559.53l17.07-67.75s19.28-3.3,26.44,3.31V604.7s-23.13,50.67-51.22,18.73c0,0-52.88-60-66.1-67.75l-20.38-11.57s-47.92-16-42.41-37.45c0,0-14.32-5-8.81-14.32a26.67,26.67,0,0,1,22.48-16.41,6.5,6.5,0,0,1,6.84,4.38c.65,2.11.17,4.37-4,5.42,0,0-14.87,7.71-7.71,8.81,0,0,25.89-14.87,23.69,5.51,0,0,8.81,2.75,2.75,13.22,0,0,9.91,3.3,2.75,10.46l-6.61,6.06s3.33,2.89,11.49,1.91l27.58.31a5.75,5.75,0,0,0,3.86-1.33c1.33-1.16,2.36-3.16.32-6.27L255.14,485s14.75-2.74,26.3,10.58a36.59,36.59,0,0,1,8.71,21.67c.17,2.59.28,5.8.28,9.67a8.35,8.35,0,0,0,2.9,6.36C302.43,541.11,330.42,563.67,345.27,559.53Z" fill="#f9b499"/><path d="M206.75,482.72l-33.33-50.17a2.13,2.13,0,0,1,1.82-3.31l32.25.69a6,6,0,0,1,4.82,2.57l69.37,98.66s.33,1.09-5.55.76l-25-.11s-6.75,1.18-11.05-2l7.89-7.55s4.67-5.87-4-9c0,0,5.91-9.52-2.75-13.22,0,0,2.28-10.41-8.16-10.74a38.27,38.27,0,0,0-15.53,5.23s-3.8.12-.86-3.47c0,0,5.55-4.57,10.28-6,0,0,4.57-1.47,1.15-6.86,0,0-2.33-3.21-10.28-1.32a16.27,16.27,0,0,0-4.1,1.61A52.92,52.92,0,0,0,206.75,482.72Z" fill="#a3a3a3"/><path d="M217.64,432.16l65.67,92.36a5.85,5.85,0,0,1,.86,5.19,2.24,2.24,0,0,1-2.5,1.82l-68.83-97.22s-1.5-4.61-8-3.95l-29.58-.74s-3.66-3.62,34.25-1.91A10.58,10.58,0,0,1,217.64,432.16Z" fill="#a3a3a3"/><path d="M217.64,432.16l65.67,92.36a5.85,5.85,0,0,1,.86,5.19,2.24,2.24,0,0,1-2.5,1.82l-68.83-97.22s-1.5-4.61-8-3.95l-29.58-.74s-3.66-3.62,34.25-1.91A10.58,10.58,0,0,1,217.64,432.16Z" opacity="0.2"/><path d="M631.5,568.75l-.3-1.26c.68-.53,16.4-12.57,27.34-9.5l-.2.73C647.77,555.76,631.66,568.62,631.5,568.75Z" fill="#f7a88f"/><path d="M615.29,260l-66.06.37a6.06,6.06,0,0,0-6,6.09h0l.26,48a6.06,6.06,0,0,0,6.1,6h0l24-.13c2.44,3.37,6.38,8.79,8.54,11.72a1.67,1.67,0,0,0,2.33.36,1.63,1.63,0,0,0,.46-.52l6.67-11.62,24-.13a6.09,6.09,0,0,0,6.05-6.11h0l-.27-47.95a6.05,6.05,0,0,0-6-6.08Z" fill="#ccc"/><path d="M615.29,260a4.48,4.48,0,0,1,1.71.18,6.15,6.15,0,0,1,3.84,3.1,7.09,7.09,0,0,1,.69,3.59v4.4c0,3.16,0,6.76.1,10.78,0,8.05.15,17.75.24,28.78v2.08a14.1,14.1,0,0,1-.08,2.15,6.3,6.3,0,0,1-2.11,3.89,6.49,6.49,0,0,1-4.29,1.47h-4.54l-19.2.13.31-.18-3.72,6.48c-.62,1.1-1.26,2.21-1.89,3.32l-1,1.67a2.11,2.11,0,0,1-1.87,1.19,2,2,0,0,1-1.13-.35,2.9,2.9,0,0,1-.75-.81l-1.17-1.59L578.12,327l-4.79-6.54.32.16-17.43.1H549a6.46,6.46,0,0,1-5.55-4.39,7.24,7.24,0,0,1-.31-1.85V302.4c0-9.08-.09-17.85-.12-26.2V267a7.14,7.14,0,0,1,.52-3.06,6.4,6.4,0,0,1,4.58-3.76,16,16,0,0,1,2.93-.15h61.53l-8.13.12-29.92.28-20.67.16h-2.79a17.38,17.38,0,0,0-2.79.13,5.86,5.86,0,0,0-4.1,3.4,6.43,6.43,0,0,0-.44,2.78v9.23c0,8.35.1,17.11.16,26.2v10.36a11.17,11.17,0,0,0,.28,3.36,5.71,5.71,0,0,0,4.91,3.91h7.15l17.41-.08h.19l.12.16,4.77,6.54,2.36,3.23,1.16,1.59a2.09,2.09,0,0,0,.55.63,1.27,1.27,0,0,0,.72.22,1.31,1.31,0,0,0,1.23-.8l1-1.67,1.9-3.33,3.72-6.46.11-.19h.26l19.21-.07c3-.18,6.27.6,8.43-1.36a5.79,5.79,0,0,0,2-3.49,11.8,11.8,0,0,0,.08-2.06v-2.08c0-11,0-20.73-.08-28.78V266.85a6.64,6.64,0,0,0-.63-3.48,6,6,0,0,0-3.64-3.09A10.62,10.62,0,0,0,615.29,260Z" fill="#a3a3a3"/><path d="M576.58,300.67a9,9,0,0,1-2.11,6.84,8.15,8.15,0,0,0,7.21-6.4s15.61,1.86,17.47-8.63c2-11.11-9.46-14.32-14.33-14.31-8.5,0-15.49,4.65-15.87,12.61S576.58,300.67,576.58,300.67Z" fill="#a3a3a3"/><path d="M636.2,263.78a16.27,16.27,0,1,1-16.36-16.19h0a16.25,16.25,0,0,1,16.34,16.17Z" fill="#a3a3a3"/><path d="M621.94,258V268.9h-2.4v-8.78h-2.19v-2Z" fill="#fff"/><path d="M576.48,44.92H503.42a6.71,6.71,0,0,0-6.72,6.69v53.12a6.71,6.71,0,0,0,6.69,6.73H530c2.68,3.75,7,9.72,9.37,13a1.87,1.87,0,0,0,2.6.4,1.82,1.82,0,0,0,.51-.56L550,111.46h26.53a6.72,6.72,0,0,0,6.72-6.7V51.63a6.7,6.7,0,0,0-6.71-6.71Z" fill="#ccc"/><path d="M576.48,44.92a5.31,5.31,0,0,1,1.9.2,6.9,6.9,0,0,1,4.22,3.46,7.92,7.92,0,0,1,.75,4V69.33c0,8.91,0,19.66.08,31.86v2.31a14.66,14.66,0,0,1-.1,2.39,7,7,0,0,1-2.42,4.25,7.12,7.12,0,0,1-4.74,1.64H550l.31-.18-4.15,7.15L544,122.43l-1.07,1.84a2.29,2.29,0,0,1-2,1.28,2.16,2.16,0,0,1-1.23-.39,3.1,3.1,0,0,1-.8-.89l-1.32-1.74L534.94,119l-5.26-7.32.31.16H502.75a7.13,7.13,0,0,1-6.1-4.92,7.37,7.37,0,0,1-.33-2V52.23a7.79,7.79,0,0,1,.57-3.37A7.1,7.1,0,0,1,502,44.73a16.47,16.47,0,0,1,3.22-.13h26l33.13.13h0l-33.13.12H505.3a15.93,15.93,0,0,0-3.09.13,6.4,6.4,0,0,0-4.59,3.75,7,7,0,0,0-.51,3.1v50.69a12.09,12.09,0,0,0,.29,3.74,6.37,6.37,0,0,0,5.44,4.39h27.35l.12.16,5.24,7.32,2.58,3.58,1.29,1.79a2.48,2.48,0,0,0,.63.7,1.37,1.37,0,0,0,.81.26,1.53,1.53,0,0,0,1.46-.91l1.07-1.86,2.14-3.66,4.16-7.13.1-.18H571.2c3.33-.17,6.95.72,9.36-1.46a6.39,6.39,0,0,0,2.21-3.87,14.51,14.51,0,0,0,.11-2.28v-1.92c0-12.2,0-23,.08-31.86V52.56a7.51,7.51,0,0,0-.67-3.88,6.77,6.77,0,0,0-4-3.44A10.71,10.71,0,0,0,576.48,44.92Z" fill="#a3a3a3"/><path d="M536.48,92.61H542V78.74h3.87l.41-4.65H542V71.41c0-1.1.22-1.53,1.27-1.53h3V65.07h-3.84c-4.13,0-6,1.82-6,5.29v3.72h-2.93v4.66h2.93Z" fill="#a3a3a3"/><circle cx="580.9" cy="50.6" r="18" fill="#a3a3a3"/><path d="M586.58,53.68h-2v2.53H581.9V53.68h-6.51V51.8l5.69-7.66H584l-5.25,7.33H582V49.15h2.64v2.26h2Z" fill="#fff"/><path d="M362.29,45.64H265.8a8.87,8.87,0,0,0-8.87,8.87v70.13a8.87,8.87,0,0,0,8.87,8.87H301c3.55,5,9.24,12.83,12.38,17.15a2.44,2.44,0,0,0,3.41.56,2.39,2.39,0,0,0,.69-.76l9.84-17h35a8.87,8.87,0,0,0,8.88-8.87V54.51a8.87,8.87,0,0,0-8.88-8.87Z" fill="#ccc"/><path d="M362.29,45.64h.64a8.67,8.67,0,0,1,7.33,4.86,8.87,8.87,0,0,1,.82,2.42,14.68,14.68,0,0,1,.16,2.81V77.87c0,11.72,0,26,.09,42.08v3a19.29,19.29,0,0,1-.13,3.13A9.23,9.23,0,0,1,368,131.7a9.43,9.43,0,0,1-6.19,2.14H327.11l.31-.18-5.33,9.52-2.8,4.79c-.48.8-1,1.62-1.47,2.45a2.93,2.93,0,0,1-2.6,1.62,2.79,2.79,0,0,1-1.56-.48,4.24,4.24,0,0,1-1-1.16l-1.7-2.34c-1.13-1.56-2.26-3.14-3.42-4.72l-6.92-9.61.3.15h-36a9.28,9.28,0,0,1-7.94-6.43,10.1,10.1,0,0,1-.42-2.62V55.3a10.3,10.3,0,0,1,.75-4.39,9.26,9.26,0,0,1,6.62-5.39,24.92,24.92,0,0,1,4.23-.18h34.32l43.74.13h0l-43.74.12H268.16a23.42,23.42,0,0,0-4.1.18,8.64,8.64,0,0,0-6.14,5,9.45,9.45,0,0,0-.67,4.14v66.93a17,17,0,0,0,.39,5,8.54,8.54,0,0,0,7.33,5.86h36.16l.11.16,6.93,9.61,3.42,4.73c.55.78,1.12,1.56,1.68,2.35a3.59,3.59,0,0,0,.86,1,1.9,1.9,0,0,0,1.15.35,2.11,2.11,0,0,0,1.94-1.24l1.47-2.45q1.43-2.43,2.81-4.84l5.49-9.44.11-.17H362a8.63,8.63,0,0,0,5.78-2,8.46,8.46,0,0,0,2.93-5.17,18,18,0,0,0,.13-3v-3c0-16.11,0-30.3.09-42.08V55.26a10.29,10.29,0,0,0-.89-5.13,8.9,8.9,0,0,0-5.36-4.55A12.22,12.22,0,0,0,362.29,45.64Z" fill="#a3a3a3"/><path d="M336.07,88.23a21.63,21.63,0,0,0-43.23-.4v1a21.31,21.31,0,0,0,3,11.09L292,111.38l12-3.81A21.66,21.66,0,0,0,336,88.78Zm-21.63,18.6a18.17,18.17,0,0,1-10-2.93l-7,2.22,2.27-6.7a17.8,17.8,0,0,1-3.45-10.58,14.91,14.91,0,0,1,.08-1.76,18.19,18.19,0,0,1,36.22.34v1.47A18.15,18.15,0,0,1,314.44,106.83Z" fill="#a3a3a3" fill-rule="evenodd"/><path d="M324.36,93.1l-3.62-1.69c-.48-.24-.85-.27-1.2.26s-1.38,1.7-1.69,2-.61.39-1.14.13a14.17,14.17,0,0,1-4.26-2.61,15.83,15.83,0,0,1-2.93-3.64c-.29-.53,0-.81.23-1.07s.53-.62.81-.92l.19-.25c.12-.21.24-.42.34-.63a1,1,0,0,0,0-.93c-.13-.26-1.2-2.85-1.64-3.91s-.88-.86-1.2-.86h-1a2,2,0,0,0-1.47.66,5.87,5.87,0,0,0-1.86,4.39,6.83,6.83,0,0,0,.28,1.8,11.84,11.84,0,0,0,1.92,3.59c.26.34,3.66,5.86,9.05,7.94s5.4,1.47,6.37,1.32a5.34,5.34,0,0,0,3.57-2.51,4.13,4.13,0,0,0,.31-2.5C325.25,93.5,324.88,93.38,324.36,93.1Z" fill="#a3a3a3" fill-rule="evenodd"/><circle cx="364.27" cy="51.3" r="23.79" fill="#a3a3a3"/><path d="M360.46,44.89V58.23h-3.09V47.38H354.7V44.89Z" fill="#fff"/><path d="M374,54.38c0,2.52-2.26,4.1-5.66,4.1s-5.6-1.58-5.6-4.1a3.39,3.39,0,0,1,2-3.15,3.12,3.12,0,0,1-1.46-2.75c0-2.35,2.11-3.81,5.14-3.81s5.17,1.46,5.17,3.81A3.1,3.1,0,0,1,372,51.23,3.37,3.37,0,0,1,374,54.38Zm-3.14-.1c0-1.17-1-1.91-2.52-1.91s-2.47.74-2.47,1.91.95,1.93,2.47,1.93S370.84,55.46,370.84,54.28Zm-4.58-5.67c0,1,.8,1.65,2.06,1.65s2.1-.64,2.1-1.65-.84-1.67-2.1-1.67-2.06.63-2.06,1.67Z" fill="#fff"/><path d="M200.65,140.51H126.78a6.81,6.81,0,0,0-6.8,6.8V201a6.8,6.8,0,0,0,6.8,6.79h26.9c2.71,3.8,7.08,9.85,9.48,13.19a1.89,1.89,0,0,0,2.62.42,2,2,0,0,0,.51-.57l7.55-13h26.81a6.8,6.8,0,0,0,6.8-6.8V147.31A6.8,6.8,0,0,0,200.65,140.51Z" fill="#ccc"/><path d="M200.65,140.51a6.2,6.2,0,0,1,1.92.22,6.88,6.88,0,0,1,4.27,3.5,8,8,0,0,1,.76,4v17c0,9,0,19.89.08,32.22v2.33a12.86,12.86,0,0,1-.1,2.4,7.14,7.14,0,0,1-2.44,4.31,7.35,7.35,0,0,1-4.79,1.67H173.84l.31-.18c-1.32,2.4-2.79,4.82-4.25,7.26-.71,1.23-1.47,2.47-2.16,3.71l-1,1.87a2.25,2.25,0,0,1-2.07,1.29,2.1,2.1,0,0,1-1.23-.38,3.52,3.52,0,0,1-.85-.91L161.29,219c-.87-1.2-1.75-2.4-2.61-3.62l-5.32-7.32.31.16H126.09a7.19,7.19,0,0,1-6.15-5,7.45,7.45,0,0,1-.34-2V148a8,8,0,0,1,.57-3.41,7.24,7.24,0,0,1,5.13-4.16,19.66,19.66,0,0,1,3.25-.15H155l33.49.12h0l-33.49.13H128.6a20.26,20.26,0,0,0-3.12.13,6.58,6.58,0,0,0-4.65,3.81,7.34,7.34,0,0,0-.51,3.14v51.2a12.39,12.39,0,0,0,.29,3.79,6.48,6.48,0,0,0,5.51,4.4h27.75l.12.14,5.3,7.33,2.61,3.61,1.3,1.81a2.39,2.39,0,0,0,.63.71,1.37,1.37,0,0,0,.82.27,1.58,1.58,0,0,0,1.47-.93l1.08-1.87,2.16-3.71,4.17-6.78.1-.17h21.72c3.37-.19,7,.7,9.46-1.47a6.47,6.47,0,0,0,2.26-3.91,12.76,12.76,0,0,0,.09-2.31V148.25a7.63,7.63,0,0,0-.68-3.91,6.76,6.76,0,0,0-4.08-3.49A11.51,11.51,0,0,0,200.65,140.51Z" fill="#a3a3a3"/><path d="M163.72,161.25c4.48,0,5,0,6.76.11a9,9,0,0,1,3.12.57,5.21,5.21,0,0,1,1.92,1.24,5.11,5.11,0,0,1,1.25,1.94,9.11,9.11,0,0,1,.58,3.1c0,1.77.11,2.3.11,6.77s0,5-.11,6.76a9.17,9.17,0,0,1-.58,3.11,5.15,5.15,0,0,1-1.25,1.93A5.23,5.23,0,0,1,173.6,188a9.21,9.21,0,0,1-3.12.57c-1.75.09-2.28.1-6.76.1s-5,0-6.75-.1a9.17,9.17,0,0,1-3.12-.57,5.23,5.23,0,0,1-1.92-1.25,5.17,5.17,0,0,1-1.26-1.93,9.45,9.45,0,0,1-.57-3.11c0-1.77-.11-2.3-.11-6.76s0-5,.11-6.77a9.35,9.35,0,0,1,.57-3.1,5.29,5.29,0,0,1,1.26-1.94,5.11,5.11,0,0,1,1.86-1.24,9,9,0,0,1,3.12-.57c1.75-.09,2.28-.11,6.75-.11m0-3c-4.54,0-5.11,0-6.9.1a12.49,12.49,0,0,0-4.06.77,8.55,8.55,0,0,0-4.77,4.9,12.06,12.06,0,0,0-.79,4.07c-.08,1.79-.09,2.36-.09,6.9s0,5.11.09,6.9a12.11,12.11,0,0,0,.79,4.07,8.51,8.51,0,0,0,4.89,4.89,12,12,0,0,0,4.06.77c1.78.09,2.36.11,6.9.11s5.12,0,6.91-.11a12,12,0,0,0,4.06-.77,8.53,8.53,0,0,0,4.89-4.89,12.36,12.36,0,0,0,.79-4.07c0-1.79.09-2.36.09-6.9s0-5.11-.09-6.9a12.31,12.31,0,0,0-.79-4.07,8.55,8.55,0,0,0-4.89-4.9,12.49,12.49,0,0,0-4.06-.77c-1.79-.09-2.36-.1-6.91-.1" fill="#a3a3a3"/><path d="M163.72,166.38a8.6,8.6,0,1,0,8.59,8.6h0a8.58,8.58,0,0,0-8.56-8.6h0m0,14.18A5.58,5.58,0,1,1,169.3,175h0a5.58,5.58,0,0,1-5.58,5.58" fill="#a3a3a3"/><path d="M174.67,166a2,2,0,1,1-2-2h0a2,2,0,0,1,2,2" fill="#a3a3a3"/><circle cx="202.2" cy="144.85" r="18.21" fill="#a3a3a3"/><path d="M207.6,138.7v1.86L203,151h-3.1l4.39-10h-4.06v2h-2.51v-4.4Z" fill="#fff"/><path d="M326.08,234.75H224.37a9.36,9.36,0,0,0-9.36,9.36V318a9.36,9.36,0,0,0,9.36,9.36h37c3.74,5.21,9.76,13.53,13.05,18.08a2.59,2.59,0,0,0,3.61.65,2.54,2.54,0,0,0,.79-.87l10.37-17.86h36.93a9.36,9.36,0,0,0,9.35-9.36V244.11a9.36,9.36,0,0,0-9.36-9.36Z" fill="#ccc"/><path d="M326.08,234.75h.68a8.72,8.72,0,0,1,2,.32,9.36,9.36,0,0,1,6.72,7.37,15.12,15.12,0,0,1,.16,2.93v23.34c0,12.41,0,27.36.09,44.35v3.22a19.15,19.15,0,0,1-.13,3.3,9.68,9.68,0,0,1-3.32,5.86,9.79,9.79,0,0,1-6.54,2.25H289.09l.31-.17-5.77,10-2.93,5.09-1.47,2.58a3,3,0,0,1-2.72,1.71,2.88,2.88,0,0,1-1.63-.51,4.38,4.38,0,0,1-1.1-1.21L272,342.68l-3.59-5-7.32-10.14.3.16H223.44a9.79,9.79,0,0,1-8.36-6.75,10,10,0,0,1-.44-2.77V244.94a10.82,10.82,0,0,1,.79-4.64,9.76,9.76,0,0,1,7-5.67,25.82,25.82,0,0,1,4.39-.19H263l46.12.12,12.54.07h0l-12.54.07-46.12.12H226.78a24.83,24.83,0,0,0-4.39.19,9.09,9.09,0,0,0-6.47,5.29,10.15,10.15,0,0,0-.74,4.39v70.57a17.41,17.41,0,0,0,.43,5.24,9,9,0,0,0,7.7,6.23c3.59.08,7.33,0,11,0h27l.11.16L268.82,337l3.6,5,1.77,2.48a3.86,3.86,0,0,0,.91,1,2.12,2.12,0,0,0,1.22.38,2.26,2.26,0,0,0,2.08-1.33l1.46-2.58,2.93-5.09c2-3.37,3.88-6.7,5.86-9.95l.1-.17h36.81a9.23,9.23,0,0,0,6.12-2.1,9.09,9.09,0,0,0,3.12-5.46A18.94,18.94,0,0,0,335,316v-2.93c0-17,0-31.95.07-44.35V245.38a16,16,0,0,0-.15-2.93,9.48,9.48,0,0,0-.8-2.5,9.37,9.37,0,0,0-5.67-4.79A13.91,13.91,0,0,0,326.08,234.75Z" fill="#a3a3a3"/><path d="M264.83,264.29a19.71,19.71,0,0,1,4.87-2.12l1-4.81,8.13-.14L280,262a19.88,19.88,0,0,1,4.92,1.95l4.11-2.7,5.86,5.64-2.55,4.21a19.51,19.51,0,0,1,2.13,4.86l4.8,1,.15,8.13-4.78,1.17a19.84,19.84,0,0,1-1.94,4.94l2.69,4.12-5.64,5.85-4.16-2.56a19.61,19.61,0,0,1-4.86,2.11l-1,4.82-8.12.14-1.18-4.77a19.57,19.57,0,0,1-4.93-1.95l-4.12,2.7L255.53,296l2.55-4.19a20.21,20.21,0,0,1-2.11-4.86l-4.82-1-.13-8.13,4.76-1.17a20.28,20.28,0,0,1,2-4.92L255,267.58l5.65-5.85,4.19,2.54Zm4.4,10.82a8.79,8.79,0,1,0,12.43-.13l-.1-.09a8.79,8.79,0,0,0-12.39.22Z" fill="#a3a3a3"/><circle cx="328.13" cy="245.77" r="25.07" fill="#a3a3a3"/><path d="M334.83,249.1c0,2.93-2.21,5.48-7.05,5.48a11.65,11.65,0,0,1-6.47-1.82l1.46-2.93a8.29,8.29,0,0,0,4.87,1.47c2,0,3.18-.81,3.18-2.18s-1-2.1-3.18-2.1h-1.8v-2.59l3.5-4h-7.12v-3.14h11.89v2.51l-3.84,4.4C333.28,244.71,334.83,246.6,334.83,249.1Z" fill="#fff"/><path d="M711.66,132.93h-86.6a10.67,10.67,0,0,0-10.65,10.65v61.7a10.67,10.67,0,0,0,10.65,10.65H656c3.34,4.67,8.78,12.12,11.71,16.2a2.3,2.3,0,0,0,3.21.53,2.39,2.39,0,0,0,.66-.72l9.3-16h30.76a10.66,10.66,0,0,0,10.64-10.65V143.62A10.65,10.65,0,0,0,711.66,132.93Z" fill="#ccc"/><path d="M711.66,132.93h.6a8.75,8.75,0,0,1,1.77.22,10.45,10.45,0,0,1,5.86,3.53,10.8,10.8,0,0,1,2.26,4.54,31.45,31.45,0,0,1,.29,6.06v14.93c0,11.16,0,24.6.07,39.85V205a11.17,11.17,0,0,1-.33,2.93,11,11,0,0,1-8.56,8.14,15.89,15.89,0,0,1-3.16.2H680.73l.31-.17q-2.52,4.4-5.17,8.92c-.88,1.46-1.76,3-2.66,4.57l-1.33,2.31a2.75,2.75,0,0,1-2.49,1.55,2.71,2.71,0,0,1-1.46-.46,4.1,4.1,0,0,1-1-1.1l-1.6-2.21-3.22-4.4-6.55-9.08.31.16H624.34a11,11,0,0,1-10.18-9.42,40.44,40.44,0,0,1-.13-4.8V144.29a12.58,12.58,0,0,1,.57-4.13,10.92,10.92,0,0,1,9-7.32,38.47,38.47,0,0,1,3.87-.1h28.25l40.91.11h0l-40.91.12H627.46a34.2,34.2,0,0,0-3.79.1,10,10,0,0,0-3.58,1.16,10.33,10.33,0,0,0-4.84,5.86,11,11,0,0,0-.55,3.91v57.84a40.92,40.92,0,0,0,.12,4.7,10.26,10.26,0,0,0,9.48,8.79h31.76l.12.16,6.53,9.08,3.23,4.39,1.59,2.21a3.44,3.44,0,0,0,.81.93,1.76,1.76,0,0,0,1.07.33,2,2,0,0,0,1.83-1.17l1.34-2.31c.88-1.54,1.78-3.06,2.66-4.57l5.18-8.91.1-.17h29.94a15.58,15.58,0,0,0,3-.18,10.35,10.35,0,0,0,8.07-7.64,25.5,25.5,0,0,0,.32-5.72c0-15.24,0-28.69.09-39.85V147a31.55,31.55,0,0,0-.24-6,10.55,10.55,0,0,0-7.88-8A20.33,20.33,0,0,0,711.66,132.93Z" fill="#a3a3a3"/><rect x="651.44" y="149.4" width="33.54" height="49.77" transform="translate(492.88 842.21) rotate(-89.91)" fill="#a3a3a3"/><path d="M693.27,157.94a2.43,2.43,0,0,1-.47.44l-1.38,1.22L686.25,164,669.07,178.4l-.13.12-.15-.12-.35-.27-17.69-14.26-5.33-4.39-1.47-1.2-.48-.44a2.73,2.73,0,0,1,.54.37l1.46,1.14,5.42,4.25,17.77,14.14.35.28h-.28L686,163.73l5.25-4.29,1.47-1.15A3.52,3.52,0,0,1,693.27,157.94Z" fill="#e0e0e0"/><path d="M643.45,191.41c-.1-.09,3.65-4.67,8.37-10.25s8.62-10,8.78-10-3.66,4.68-8.37,10.26S643.54,191.51,643.45,191.41Z" fill="#e0e0e0"/><path d="M677.08,170.79c.1,0,3.79,4.49,8.25,10.25s8,10.41,7.88,10.49-3.78-4.5-8.23-10.26S677,170.88,677.08,170.79Z" fill="#e0e0e0"/><circle cx="717.7" cy="135.02" r="28.53" fill="#a3a3a3"/><path d="M712.6,127.38v15h-3.47v-12.2H706.2v-2.78Z" fill="#fff"/><path d="M715.21,134.88c0-5,2.73-7.75,6.41-7.75s6.42,2.79,6.42,7.75-2.71,7.73-6.42,7.73S715.21,139.81,715.21,134.88Zm9.34,0c0-3.42-1.2-4.82-2.93-4.82s-2.93,1.46-2.93,4.82,1.2,4.8,2.93,4.8S724.55,138.27,724.55,134.88Z" fill="#fff"/><rect x="145.05" y="641.16" width="600.65" height="2.28" fill="#a3a3a3"/><path d="M459.9,330.65s3.66,6.85,2.76,10.8a72,72,0,0,0,24-38.82S473.67,322.82,459.9,330.65Z" fill="#f7a48b"/><ellipse cx="445.42" cy="259.49" rx="50.26" ry="75.4" fill="#f9b499"/><path d="M404.29,216.09s-22.84-3.27-24.8-29.38c0,0,26.11,14.36,35.25,12.4C414.74,199.11,408.21,208.9,404.29,216.09Z" fill="#a3a3a3"/><path d="M404.29,216.09s-22.84-3.27-24.8-29.38c0,0,26.11,14.36,35.25,12.4C414.74,199.11,408.21,208.9,404.29,216.09Z" opacity="0.2"/><path d="M380.79,174.53s7.84,63.1,86.17,16.75c0,0-4.57,21.54,7.83,34.6,0,0,10.45,17,10.45,28.07,0,0,6.31-10.67,12.73-11.1h0s-.33,27.85,0,32,6.42,6.32,6.42,19.81c0,0,33.94-92.7,1.3-109.24,0,0,1.74-20.88-27.41-18.27,0,0-22.2,2.61-30-.44C448.25,166.69,421.92,147.33,380.79,174.53Z" fill="#a3a3a3"/><ellipse cx="497.97" cy="258.84" rx="10.12" ry="15.99" fill="#f9b499"/></svg>