<svg id="b39fa990-2492-422e-870a-34ccf649d078" data-name="Layer 1" xmlns="http://www.w3.org/2000/svg" width="865.76" height="682.89" viewBox="0 0 865.76 682.89"><polyline points="0 585.8 865.76 585.8 865.76 586.23 0 586.23" fill="#ebebeb"/><rect x="90.84" y="602.28" width="45.02" height="0.43" fill="#ebebeb"/><rect x="253.37" y="597.59" width="93.68" height="0.43" fill="#ebebeb"/><rect x="137.59" y="618.37" width="45.57" height="0.43" fill="#ebebeb"/><rect x="745.72" y="615.46" width="33.3" height="0.43" fill="#ebebeb"/><rect x="677.84" y="615.46" width="52.45" height="0.43" fill="#ebebeb"/><rect x="447.13" y="608.15" width="94.47" height="0.43" fill="#ebebeb"/><path d="M410.37,508.57H76a9.89,9.89,0,0,1-9.87-9.88V28.7A9.89,9.89,0,0,1,76,18.9H410.37a9.88,9.88,0,0,1,9.89,9.88h0V498.69A9.88,9.88,0,0,1,410.37,508.57ZM76,19.24a9.46,9.46,0,0,0-9.44,9.46v470A9.46,9.46,0,0,0,76,508.14H410.37a9.48,9.48,0,0,0,9.46-9.45V28.7a9.48,9.48,0,0,0-9.46-9.46Z" fill="#ebebeb"/><path d="M784.92,508.57H450.56a9.9,9.9,0,0,1-9.89-9.88V28.7a9.91,9.91,0,0,1,9.89-9.8H784.92a9.88,9.88,0,0,1,9.85,9.8v470A9.88,9.88,0,0,1,784.92,508.57ZM450.56,19.24a9.47,9.47,0,0,0-9.45,9.46v470a9.47,9.47,0,0,0,9.45,9.45H784.92a9.47,9.47,0,0,0,9.45-9.45V28.7a9.47,9.47,0,0,0-9.45-9.46Z" fill="#ebebeb"/><circle cx="698.45" cy="206.61" r="44.31" fill="#fafafa"/><path d="M232.28,141.44a23.21,23.21,0,0,0-6.23,1.19c-.48-4.15-5.49-6.7-14.37-6.4a63.69,63.69,0,0,0-14.58,2.37c3.1-6.25,0-10.69-8.66-10.69a46.81,46.81,0,0,0-16.76,3.83c-1.26-4.19-6-6.77-14-6.77-12.77,0-30,6.55-43.17,15.76-6.34.15-18.53,3.79-20.59,7H234.74l.66-.6C238.76,143.84,237.41,141.26,232.28,141.44Z" fill="#e6e6e6"/><path d="M784.68,228.83a26,26,0,0,0-6.93,1.31c-.54-4.58-6.06-7.39-15.9-7.08a70.57,70.57,0,0,0-16.12,2.63c3.47-6.92,0-11.81-9.66-11.81a51.41,51.41,0,0,0-18.52,4.23c-1.41-4.64-6.67-7.5-15.59-7.5-14.09,0-33.16,7.26-47.74,17.44-7,.17-20.46,4.19-22.77,7.79H787.29c.24-.22.49-.43.73-.67C791.83,231.49,790.34,228.65,784.68,228.83Z" fill="#f5f5f5"/><path d="M703.12,122.67a35.13,35.13,0,0,0-10.06,2.21c1.73-7.72-4.15-12.45-17.59-11.93a93.54,93.54,0,0,0-23.27,4.45h0c8.43-11.63,6.4-19.87-6.62-19.87-7.41,0-17.16,2.66-27.37,7.11.67-7.82-4.9-12.62-16.89-12.62-14.83,0-36.13,7.38-56.79,18.73-.55-3.3-3.67-5.19-9.4-5.19-7.93,0-19,3.72-30.15,9.58h-2.25c-14,1-33.8,8.53-45.24,17.17H705.34C711.31,126.65,710.48,122.39,703.12,122.67Z" fill="#f0f0f0"/><path d="M266.83,219.25a14.14,14.14,0,0,0-4.16.9c.73-3.17-1.73-5.19-7.25-4.91a37.66,37.66,0,0,0-9.59,1.83h0c3.46-4.8,2.63-8.19-2.74-8.19a30.34,30.34,0,0,0-11.29,2.93c.28-3.22-2-5.2-6.93-5.2-6.11,0-14.9,3-23.41,7.72-.24-1.36-1.52-2.16-3.88-2.16a29.84,29.84,0,0,0-12.45,4h-.91a40.31,40.31,0,0,0-18.69,7.1H267.69C270.12,220.88,269.86,219.13,266.83,219.25Z" fill="#fafafa"/><path d="M116.79,256.51c-9.85-2.45-16-7.53-23,1,9.7-6.63,22.51,3.07,22.51,3.07s14.39-7.34,22.81.86C133.85,251.84,126.92,255.79,116.79,256.51Z" fill="#e0e0e0"/><path d="M162.21,284.76c-6.27-1.56-10.16-4.8-14.6.65,6.17-4.22,14.37,1.94,14.37,1.94s9.13-4.65,14.48.56C173,281.78,168.63,284.29,162.21,284.76Z" fill="#e0e0e0"/><path d="M682.4,62.79c-8.25-2.06-13.37-6.3-19.19.87,8.1-5.54,18.89,2.56,18.89,2.56s12-6.13,19,.73C696.65,58.88,690.88,62.19,682.4,62.79Z" fill="#e0e0e0"/><polygon points="226.12 367.85 325.87 367.85 325.87 585.8 153.81 585.8 153.81 422.74 226.12 367.85" fill="#e0e0e0"/><rect x="253.56" y="422.74" width="144.62" height="163.06" fill="#ebebeb"/><rect x="253.56" y="422.74" width="144.62" height="4.33" fill="#e0e0e0"/><polygon points="325.87 367.85 398.18 422.74 253.56 422.74 325.87 367.85" fill="#ebebeb"/><rect x="275.9" y="450.98" width="99.93" height="30.87" fill="#e0e0e0"/><rect x="362.67" y="513.61" width="13.16" height="40.5" fill="#e0e0e0"/><rect x="307.88" y="522.95" width="35.98" height="62.85" fill="#e0e0e0"/><rect x="275.9" y="513.61" width="13.16" height="40.5" fill="#e0e0e0"/><rect x="175.02" y="361.74" width="27.36" height="48.24" fill="#e0e0e0"/><polygon points="710.64 461.82 645.05 461.81 624.7 477.25 624.7 471.03 611.94 471.03 611.94 486.95 597.5 497.91 597.5 497.91 597.5 500.75 597.5 585.8 633.22 585.8 645.05 585.8 758.18 585.8 758.18 497.91 710.64 461.82" fill="#f5f5f5"/><polygon points="534.14 377.62 617.46 377.62 643.3 397.24 643.3 389.32 659.5 389.32 659.5 409.53 677.84 423.45 677.84 423.45 677.84 427.07 677.84 585.8 632.48 585.8 617.46 585.8 473.76 585.8 473.76 423.45 534.14 377.62" fill="#f0f0f0"/><g id="ecffac15-49b7-4fd1-b3c6-6babf2a639c1" data-name="freepik--Shadow--inject-1"><ellipse id="a3adbffe-97aa-4c1f-9600-11ab16cb6b0b" data-name="freepik--path--inject-1" cx="432.88" cy="644.39" rx="335.73" ry="19.6" fill="#f5f5f5"/></g><rect x="304.85" y="303.51" width="25.84" height="1.74" transform="translate(-74.44 104.9) rotate(-16.81)" fill="#a3a3a3"/><rect x="336.94" y="295.63" width="13.75" height="1.74" transform="matrix(0.96, -0.29, 0.29, 0.96, -71.05, 112.09)" fill="#a3a3a3"/><rect x="240.89" y="190.94" width="129.93" height="107.1" transform="translate(-57.99 99.79) rotate(-16.95)" fill="#a3a3a3"/><rect x="366.9" y="164.97" width="48.64" height="107.1" transform="translate(-46.71 123.55) rotate(-16.95)" fill="#a3a3a3"/><rect x="366.9" y="164.97" width="48.64" height="107.1" transform="translate(-46.71 123.55) rotate(-16.95)" opacity="0.3" style="isolation:isolate"/><rect x="342.22" y="223.41" width="59.94" height="33.72" transform="translate(-53.58 117.89) rotate(-16.81)" fill="#fff" opacity="0.3" style="isolation:isolate"/><rect x="248.97" y="218.09" width="22.49" height="22.49" transform="translate(-55.56 85.83) rotate(-16.95)" fill="#fff"/><rect x="275.33" y="210.05" width="22.49" height="22.49" transform="translate(-52.07 93.16) rotate(-16.95)" fill="#fff"/><path d="M295.54,123.48h0a16.12,16.12,0,0,0,13.35-18.4L305,80.94a16.13,16.13,0,0,0-18.4-13.35h0A16.13,16.13,0,0,0,273.29,86l3.84,24.25A16.12,16.12,0,0,0,295.54,123.48Z" fill="#bcbec0"/><path d="M280.82,96.57a10.3,10.3,0,1,0,8.55-11.87A10.3,10.3,0,0,0,280.82,96.57Z" opacity="0.3" style="isolation:isolate"/><path d="M284.39,96a6.68,6.68,0,1,0,5.55-7.65A6.68,6.68,0,0,0,284.39,96Z" fill="#a3a3a3"/><path d="M290.9,92.68A2.05,2.05,0,0,0,295,92h0a2.05,2.05,0,1,0-4.05.64Z" fill="#fff"/><path d="M287.62,98.36a1,1,0,0,0,1.16.87h0a1,1,0,1,0-1.18-.86Z" fill="#fff"/><polygon points="378.74 82.65 334.83 86.98 335.85 93.39 379.65 88.47 378.74 82.65" fill="#d1d3d4"/><path d="M381.39,98.24h0a7.36,7.36,0,0,0,6.09-8.35l-1.73-11a7.39,7.39,0,0,0-8.42-6.11h0a7.39,7.39,0,0,0-6.11,8.42l1.73,11A7.38,7.38,0,0,0,381.39,98.24Z" fill="#bcbec0"/><path d="M335,83l-29.92-1.85,3.46,21.49,28.14-4.49a3.46,3.46,0,0,0,2.9-3.94v0l-1.31-8.24A3.48,3.48,0,0,0,335,83Z" fill="#bcbec0"/><path d="M373.8,68a2.73,2.73,0,1,0,2.27-3.13h0A2.73,2.73,0,0,0,373.8,68Z" fill="#bcbec0"/><path d="M383.76,68.56l21.87-3.47a2.1,2.1,0,0,0,1.73-2.4h0A2.08,2.08,0,0,0,405,61h0L383.1,64.42a2.11,2.11,0,0,0-1.73,2.41h0A2.13,2.13,0,0,0,383.76,68.56Z" fill="#bcbec0"/><path d="M348,74.31l21.87-3.47a2.07,2.07,0,0,0,1.73-2.37v0h0a2.08,2.08,0,0,0-2.37-1.73h0l-21.87,3.47a2.08,2.08,0,0,0-1.74,2.37h0A2.1,2.1,0,0,0,348,74.31Z" fill="#bcbec0"/><polygon points="203.78 110.55 246.85 101.01 247.87 107.41 204.7 116.36 203.78 110.55" fill="#d1d3d4"/><path d="M206.05,126.25h0a7.34,7.34,0,0,1-8.41-6.11l-1.73-11a7.36,7.36,0,0,1,6.09-8.41h0a7.38,7.38,0,0,1,8.43,6.11l1.73,11A7.35,7.35,0,0,1,206.05,126.25Z" fill="#bcbec0"/><path d="M245.46,97.21l27.86-11,3.46,21.49-28.13,4.48a3.46,3.46,0,0,1-4-2.86v0L243.35,101A3.47,3.47,0,0,1,245.46,97.21Z" fill="#bcbec0"/><path d="M203.92,95.08a2.73,2.73,0,1,1-3.15-2.23l.09,0A2.74,2.74,0,0,1,203.92,95.08Z" fill="#bcbec0"/><path d="M194.62,98.7l-21.87,3.47a2.11,2.11,0,0,1-2.4-1.74h0a2.1,2.1,0,0,1,1.73-2.38L194,94.58a2.1,2.1,0,0,1,2.39,1.73h0a2.07,2.07,0,0,1-1.71,2.39Z" fill="#bcbec0"/><path d="M230.29,93l-21.87,3.46a2.1,2.1,0,0,1-2.4-1.73h0a2.1,2.1,0,0,1,1.73-2.39l21.87-3.46A2.07,2.07,0,0,1,232,90.6v0h0A2.09,2.09,0,0,1,230.3,93Z" fill="#bcbec0"/><path d="M391.33,158.93a2.18,2.18,0,0,1-.63-.09L297,132a2.28,2.28,0,0,1,1.26-4.38l93.64,26.82a2.28,2.28,0,0,1,1.56,2.82A2.25,2.25,0,0,1,391.33,158.93Z" fill="#a3a3a3"/><path d="M350.86,169.12a2.23,2.23,0,0,1-1.3-.41l-53.28-37a2.29,2.29,0,1,1,2.4-3.9l.22.16,53.26,37a2.28,2.28,0,0,1,.55,3.18,2.24,2.24,0,0,1-1.85,1Z" fill="#a3a3a3"/><path d="M231.25,207.81a2.27,2.27,0,0,1-2.31-2.24,2.31,2.31,0,0,1,.57-1.54l66.34-75.7a2.29,2.29,0,1,1,3.46,3L233,207A2.3,2.3,0,0,1,231.25,207.81Z" fill="#a3a3a3"/><path d="M483.43,233h-.33a2,2,0,0,0-2,2,2,2,0,0,0,.09.59l7.26,23.05h2.84Z" fill="#a3a3a3"/><path d="M481.69,283.82h2.24L470.32,239.3h0A3.65,3.65,0,0,0,466.7,243a3.5,3.5,0,0,0,.15,1l11.38,37.23A3.67,3.67,0,0,0,481.69,283.82Z" fill="#a3a3a3"/><path d="M536.39,239.25h-13l-1.9-6.25h-9.39l-3.46-11.15a.86.86,0,0,0-1.07-.59.87.87,0,0,0-.57,1.09L510.28,233H493.83l-6.92-22.51a.87.87,0,1,0-1.71.31.6.6,0,0,0,.06.19L492,233h-8.66l1.91,6.25h-15l13.72,44.57H550Z" fill="#a3a3a3"/><path d="M536.39,239.25h-13l-1.9-6.25h-9.39l-3.46-11.15a.86.86,0,0,0-1.07-.59.87.87,0,0,0-.57,1.09L510.28,233H493.83l-6.92-22.51a.87.87,0,1,0-1.71.31.6.6,0,0,0,.06.19L492,233h-8.66l1.91,6.25h-15l13.72,44.57H550Z" fill="#fff" opacity="0.4" style="isolation:isolate"/><path d="M592.56,206.73c2.05,3.15,3.78,6.18,5.54,9.32s3.47,6.28,5.06,9.47c3.24,6.39,6.2,13,8.83,19.76,1.35,3.37,2.51,6.92,3.62,10.39l.21.69.29,1.12a16.41,16.41,0,0,1,.4,2.31,18.12,18.12,0,0,1-.1,4.71,20.26,20.26,0,0,1-3,7.89,30,30,0,0,1-9.77,9.06,45.58,45.58,0,0,1-5.19,2.7,41.69,41.69,0,0,1-5.59,2l-4.06-8.65a77.25,77.25,0,0,0,6.76-6.41,19.38,19.38,0,0,0,4.17-6.32,3.58,3.58,0,0,0,.21-1.94,4.59,4.59,0,0,0-.24-.5,1.38,1.38,0,0,0-.14-.24.29.29,0,0,1,0-.13l-.23-.55c-1.23-3-2.56-6-3.95-9-2.82-6-5.88-12-9.12-17.94l-4.88-8.88-5-8.66Z" fill="#f9b499"/><path d="M593,276.55l-9.1-2.37-.52,14.68s7.11,1.06,11.48-3.29Z" fill="#f9b499"/><polygon points="571.01 271.7 573.07 284.6 583.39 288.86 583.91 274.18 571.01 271.7" fill="#ffb573"/><path d="M562,161.8c-1.82,9.3-3.64,26.35,2.87,32.55,0,0-2.54,9.44-19.84,9.44-19,0-9.09-9.44-9.09-9.44,10.39-2.47,10.11-10.16,8.31-17.4Z" fill="#f9b499"/><path d="M568.63,196.08c1.41-2.58,2.93-5.54-.24-6.47-3.46-1-25.85-2.91-32.43-1,2,3.59-1.4,8-1.4,8Z" fill="#f20004"/><path d="M568.63,196.08c1.41-2.58,2.93-5.54-.24-6.47-3.46-1-25.85-2.91-32.43-1,2,3.59-1.4,8-1.4,8Z" opacity="0.3" style="isolation:isolate"/><polygon points="548.88 631.41 536.17 631.41 534.9 601.96 547.61 601.96 548.88 631.41" fill="#f9b499"/><polygon points="642.24 625.52 629.81 628.21 617.32 600.78 629.76 598.08 642.24 625.52" fill="#f9b499"/><path d="M628.54,627l14-3a1.12,1.12,0,0,1,1.24.62l4.85,10.53a1.87,1.87,0,0,1-.94,2.47,2,2,0,0,1-.41.13c-4.88,1-7.32,1.19-13.45,2.52-3.79.82-12.31,2.9-17.54,4s-7-3.9-5-4.82c9.12-4.17,12.93-7.84,15.39-11.27A3.11,3.11,0,0,1,628.54,627Z" fill="#a3a3a3"/><path d="M536.25,629.94h13.86a1.07,1.07,0,0,1,1.07.86l2.53,11.31a1.85,1.85,0,0,1-1.41,2.21,2,2,0,0,1-.43,0c-5,0-12.26-.36-18.54-.36-7.38,0-13.73.39-22.37.39-5.2,0-6.67-5.28-4.49-5.76,10-2.17,18.08-2.41,26.68-7.71A5.94,5.94,0,0,1,536.25,629.94Z" fill="#a3a3a3"/><path d="M587.66,197.24c11.93,2.74,21.75,33.18,21.75,33.18l-23.93,18.25a52.33,52.33,0,0,1-12.71-23.51C568.69,209.19,575.47,194.44,587.66,197.24Z" fill="#f20004"/><path d="M587.66,197.24c11.93,2.74,21.75,33.18,21.75,33.18l-23.93,18.25a52.33,52.33,0,0,1-12.71-23.51C568.69,209.19,575.47,194.44,587.66,197.24Z" opacity="0.3" style="isolation:isolate"/><path d="M577.45,219.62c6.47,6.4,8.65,18.07,9.09,28.22l-1.06.81a52.28,52.28,0,0,1-12.71-23.51c-.24-.95-.45-1.91-.62-2.84Z" opacity="0.2" style="isolation:isolate"/><path d="M567.35,152.33c-3.27,12.21-4.57,19.5-12.12,24.57-11.32,7.64-25.42-1.13-25.85-14-.4-11.64,5-29.63,18.09-32.09a17.2,17.2,0,0,1,19.88,21.56Z" fill="#f9b499"/><path d="M540.93,152.33c-1.16-4.35-3.9-12.12,2-14.46,7.86-2.89,23.93-1.73,30.33,2.62,6.17,10.66-1.33,20.32-5.19,24.72s-4.12,7.22-6.65,8.36c-4.83,2.22-15.17-.26-16.49-4.48C543.18,163.77,536.15,158.89,540.93,152.33Z" fill="#a3a3a3"/><path d="M549.14,138.81c-8.66.81-14.41-2.17-17.66-7.29a11.87,11.87,0,0,0,5.62,0A7.6,7.6,0,0,0,531,129a12,12,0,0,1,9.89-2.24,13.64,13.64,0,0,1-1.23-9.88c1.37,3.18,8.8,6.65,11.48,6.72,0,0-3.77-4.33-2.44-8.89,2.79,4.19,9.44,12,18.09,13.72,7.19,1.43,13.94,15.81,1.74,15.29C552.36,143.05,549.14,138.81,549.14,138.81Z" fill="#a3a3a3"/><path d="M546.61,151.76a14.4,14.4,0,0,1-5.2,7.6c-3.3,2.46-5.78,0-5.54-3.71.21-3.37,2.18-8.65,5.84-9.73S547.54,148.1,546.61,151.76Z" fill="#f9b499"/><path d="M539.79,307.84S554.21,405,562.14,441.39c8.66,39.83,55.22,171.84,55.22,171.84l22.77-4.94S607.59,500.76,600.3,445c-5.59-42.82-16.62-137.24-16.62-137.24Z" fill="#a3a3a3"/><path d="M611.9,605.69c-.1,0,4.25,8.25,4.25,8.25l25.62-5.56-2.16-7.69Z" fill="#a3a3a3"/><path d="M548.89,342.47c16.7,3.27,14.93,65.52,12.92,97.53C557,417.37,550,373.83,545.14,342.92A5.65,5.65,0,0,1,548.89,342.47Z" opacity="0.3" style="isolation:isolate"/><path d="M515.65,307.84s-1.73,95.11-.36,133.9c1.43,40.34,15.58,172.46,15.58,172.46h21.49s.79-129.76,1.73-169.38c1.06-43.29,6.27-137,6.27-137Z" fill="#a3a3a3"/><path d="M526.66,605.61c-.1,0,1.21,8.95,1.21,8.95h26.22l.71-8Z" fill="#a3a3a3"/><path d="M516.08,196.55c-3.32,1.51-6.53,4.23-7.5,13.2-.91,8.65.87,84.18,3,108.32a3.63,3.63,0,0,0,2.81,3.31c13.44,2.68,53.94,2.21,68.55.34a3.56,3.56,0,0,0,3-3.46c1.17-23.36,4.53-64.45,4.53-88.74,0-15.84,1.73-32.19-10.39-35C571.21,192.45,529.07,190.63,516.08,196.55Z" fill="#f20004"/><path d="M529.85,218.65c-.59,3.65-1.3,6.92-2.08,10.39s-1.61,6.8-2.58,10.19a138.42,138.42,0,0,1-7.36,20.35,61.23,61.23,0,0,1-5.9,10.28,30.25,30.25,0,0,1-4.78,5.2,19.85,19.85,0,0,1-3.6,2.51,17.83,17.83,0,0,1-2,.88,16,16,0,0,1-2.14.66,17.32,17.32,0,0,1-9.23-.24,18.2,18.2,0,0,1-6.93-4.1,22.67,22.67,0,0,1-4.15-5.2,29.86,29.86,0,0,1-1.39-2.77c-.4-.93-.69-1.84-1.07-3l8.43-4.48c.43.27,1.07.83,1.61,1.24a18,18,0,0,0,1.73,1.23,14.35,14.35,0,0,0,3.17,1.73,3.39,3.39,0,0,0,2.13.21c.42-.17.49-.36.75-.66l.5-.46.46-.49a14.77,14.77,0,0,0,1.74-2.41,48.89,48.89,0,0,0,3.65-7.49,157.57,157.57,0,0,0,5.68-18c.8-3.11,1.59-6.25,2.32-9.42s1.4-6.42,2-9.4Z" fill="#f9b499"/><path d="M538.8,210.33c10.39,20.78-14.22,44.26-14.22,44.26l-27.37-14.3a149.91,149.91,0,0,1,9.35-32.08C514.54,190.49,532.86,198.37,538.8,210.33Z" fill="#f20004"/><path d="M538.8,210.33c10.39,20.78-14.22,44.26-14.22,44.26l-27.37-14.3a149.91,149.91,0,0,1,9.35-32.08C514.54,190.49,532.86,198.37,538.8,210.33Z" opacity="0.3" style="isolation:isolate"/><path d="M480.53,267.63l-9.95-4.92,5.28-12.86s11,3.63,10.39,12.86Z" fill="#f9b499"/><polygon points="468.17 259.55 467.22 248.03 475.86 249.85 470.58 262.71 468.17 259.55" fill="#f9b499"/><path d="M544.86,179.68s.26,1.62.31,2.38a11.1,11.1,0,0,0,8.48-4.21S548.76,180.53,544.86,179.68Z" fill="#f7a48b"/></svg>